<?xml version="1.0" encoding="UTF-8"?>
<svg id="communication" data-name="Layer 1" xmlns="http://www.w3.org/2000/svg" viewBox="0 0 63.33 63.35">
  <defs>
    <style>
      .cls-1 {
        fill: #91191c;
        stroke: #91191c;
        stroke-width: .3px;
      }
    </style>
  </defs>
  <path id="social-media-marketing" class="cls-1" d="M11.29,43.22c0-.49.4-.89.89-.89h21.58c.49-.02.91.37.92.86.02.49-.37.91-.86.92-.02,0-.04,0-.06,0H12.18c-.49,0-.89-.4-.89-.89h0ZM12.18,37.5h15.77c.49-.02.88-.43.86-.92-.02-.47-.39-.85-.86-.86h-15.77c-.49-.02-.91.37-.92.86-.02.49.37.91.86.92.02,0,.04,0,.06,0ZM48.72,50.53v10.59c0,1.14-.93,2.07-2.07,2.07h-14.23c-1.14,0-2.07-.92-2.07-2.07h0v-6.47c-2.42.56-4.9.84-7.38.83-1.05,0-2.11-.05-3.15-.15l-11.02,7.69c-.4.28-.96.18-1.24-.22-.14-.21-.19-.47-.14-.71l2.21-9.54C3.68,49.65.15,44.96.15,39.91c.1-3.68,1.81-7.13,4.66-9.46,3.29-2.79,7.24-4.66,11.48-5.44.49-.09.95.24,1.04.72.08.47-.21.92-.67,1.03-3.92.73-7.59,2.46-10.65,5.03-2.47,1.99-3.95,4.96-4.07,8.13,0,4.51,3.4,8.75,9.1,11.34.39.18.6.6.5,1.01l-1.85,7.97,9.39-6.55c.17-.12.39-.18.6-.16,1.1.11,2.2.17,3.3.17,2.49,0,4.97-.29,7.38-.88v-2.29c0-1.14.93-2.07,2.07-2.07h7.01c2.95-2.43,4.56-5.46,4.56-8.56,0-3.31-1.83-6.51-5.16-9.02-.4-.28-.5-.84-.22-1.24.28-.4.84-.5,1.24-.22.02.01.04.03.05.04,3.78,2.86,5.87,6.57,5.87,10.45-.08,3.23-1.42,6.3-3.73,8.56h4.59c1.14,0,2.07.93,2.07,2.07h0ZM46.93,50.53c0-.16-.13-.28-.28-.28h-14.23c-.16,0-.28.13-.28.28v10.59c0,.16.13.28.28.28h14.23c.16,0,.28-.13.28-.28v-10.59ZM42.98,55.83c0,.32-.17.61-.45.77l-5.09,2.94c-.43.25-.97.1-1.22-.33-.08-.14-.12-.29-.12-.45v-5.89c0-.49.4-.89.89-.89.16,0,.31.04.45.12l5.09,2.94c.28.16.45.45.44.77h0ZM40.3,55.83l-2.42-1.4v2.79l2.42-1.39ZM57.32,9.53c.16,0,.31-.04.45-.12l3.45-1.99c.42-.26.55-.81.29-1.23-.25-.4-.77-.54-1.19-.32l-3.45,1.99c-.43.25-.57.79-.33,1.22.16.28.45.45.77.45ZM51.58,5.5c.43.25.97.1,1.22-.33,0,0,0,0,0,0l2.1-3.64c.27-.41.16-.97-.26-1.24-.41-.27-.97-.16-1.24.26-.02.03-.04.06-.05.09l-2.1,3.64c-.24.43-.1.97.33,1.22ZM57.16,15.17c0,.49.4.89.89.89h4.2c.49.02.91-.37.92-.86s-.37-.91-.86-.92c-.02,0-.04,0-.06,0h-4.2c-.49,0-.89.4-.89.89h0s0,0,0,0ZM19.34,24.97c.46-1.76,1.61-3.25,3.18-4.16l4.67-2.7c.29-.17.65-.16.93.02,4.38-3.13,8.05-7.16,10.75-11.82l-.08-.14c-.98-1.77-.33-4.01,1.44-4.98,1.73-.95,3.89-.37,4.91,1.32l3.64,6.31c2.02-1.03,4.5-.23,5.53,1.8.95,1.87.34,4.17-1.43,5.31l3.64,6.31c1.01,1.76.41,4-1.35,5.01-.55.32-1.18.49-1.82.49-.32,0-.65-.04-.96-.13-.94-.25-1.74-.86-2.23-1.71l-.08-.14c-5.33,0-10.61,1.14-15.47,3.34l6.45,8.68c.64.86.53,2.06-.26,2.78l-1.42,1.29c-.38.35-.88.54-1.4.54-.07,0-.13,0-.2,0-.58-.06-1.1-.35-1.45-.81l-6.74-9.02-.24.14c-1.03.6-2.21.91-3.4.92-.61,0-1.21-.08-1.79-.24-3.64-.97-5.81-4.7-4.85-8.35,0-.01,0-.02,0-.03h0ZM39.64,38.84l-6.29-8.47-2.18,1.26,6.62,8.85c.05.06.11.1.19.1.08,0,.16-.02.23-.08l1.42-1.29c.11-.1.12-.27.03-.39h0ZM49.68,10.37l2.31,4.01c1.05-.73,1.32-2.17.59-3.23-.65-.94-1.88-1.26-2.9-.78ZM40.34,5.29l11.39,19.73c.53.9,1.68,1.19,2.58.67.88-.52,1.19-1.66.68-2.55L43.6,3.4c-.53-.9-1.68-1.19-2.58-.67-.88.52-1.19,1.66-.68,2.55h0ZM29.11,19.64l4.58,7.93c4.84-2.19,10.07-3.41,15.38-3.6l-9.15-15.85c-2.82,4.51-6.49,8.42-10.81,11.52ZM21.57,29.28c1.4,2.41,4.49,3.24,6.92,1.85l3.9-2.25-5.06-8.77-3.9,2.25c-2.41,1.4-3.24,4.49-1.85,6.92h0ZM5.05,10.52c0-2.99,2.43-5.42,5.42-5.42s5.42,2.43,5.42,5.42-2.43,5.42-5.42,5.42c-2.99,0-5.42-2.43-5.42-5.42ZM6.83,10.52c0,2.01,1.63,3.64,3.64,3.64s3.64-1.63,3.64-3.64-1.63-3.64-3.64-3.64h0c-2.01,0-3.64,1.63-3.64,3.64h0ZM.15,11.46v-1.89c0-.83.68-1.51,1.51-1.51.66,0,1.19-.54,1.19-1.2,0-.31-.13-.62-.35-.84-.59-.59-.59-1.55,0-2.14l1.33-1.33c.59-.59,1.55-.59,2.14,0,.47.47,1.22.46,1.69,0,.22-.22.35-.53.35-.84,0-.83.68-1.51,1.51-1.51h1.89c.83,0,1.51.68,1.51,1.51,0,.66.54,1.19,1.2,1.19.31,0,.62-.13.84-.35.59-.59,1.55-.59,2.14,0l1.33,1.33c.59.59.59,1.55,0,2.14-.47.47-.46,1.22,0,1.69.22.22.53.35.84.35.83,0,1.51.68,1.51,1.51v1.89c0,.83-.68,1.51-1.51,1.51-.66,0-1.19.54-1.19,1.2,0,.31.13.62.35.84.59.59.59,1.55,0,2.14l-1.33,1.33c-.59.59-1.55.59-2.14,0-.47-.47-1.22-.46-1.69,0-.22.22-.35.53-.35.84,0,.83-.68,1.51-1.51,1.51h-1.89c-.83,0-1.51-.68-1.51-1.51,0-.66-.54-1.19-1.19-1.19-.32,0-.62.13-.84.35-.59.59-1.55.59-2.14,0l-1.33-1.33c-.59-.59-.59-1.55,0-2.14.47-.47.46-1.22,0-1.69-.22-.22-.53-.35-.84-.35-.83,0-1.51-.68-1.51-1.51ZM1.93,11.2c1.64.15,2.84,1.61,2.69,3.25-.06.6-.29,1.16-.67,1.62l.96.96c1.27-1.05,3.15-.88,4.2.39.38.46.62,1.03.67,1.63h1.36c.15-1.64,1.61-2.84,3.25-2.69.6.06,1.16.29,1.63.67l.96-.96c-1.05-1.27-.88-3.15.39-4.2.46-.38,1.03-.62,1.63-.67v-1.36c-1.64-.15-2.84-1.61-2.69-3.25.06-.6.29-1.16.67-1.63l-.96-.96c-1.27,1.05-3.15.88-4.2-.39-.38-.46-.62-1.03-.67-1.63h-1.36c-.15,1.64-1.61,2.84-3.25,2.69-.6-.06-1.16-.29-1.62-.67l-.96.96c1.05,1.27.88,3.15-.39,4.2-.46.38-1.03.62-1.63.67v1.36ZM63.08,34.93c-.35,2.27-1.14,4.45-2.32,6.42-1.12,2-2.61,3.77-4.4,5.22-1.17.95-2.62,1.5-4.12,1.55-.97,0-1.91-.27-2.74-.76l-.32-.19c-1.09-.63-1.47-2.03-.84-3.12l1.28-2.22c.63-1.09,2.03-1.47,3.12-.84l.75.43c.21.13.47.08.63-.1,1.45-1.68,2.57-3.62,3.3-5.71.08-.23-.01-.48-.22-.6l-.75-.43c-1.09-.63-1.47-2.03-.84-3.12l1.28-2.22c.63-1.09,2.03-1.47,3.12-.84l.32.19c2.14,1.24,3.09,3.43,2.74,6.34ZM59.44,30.13l-.32-.19c-.24-.14-.54-.06-.68.18h0s-1.28,2.23-1.28,2.23c-.14.24-.06.54.18.68,0,0,0,0,0,0l.75.43c.95.54,1.38,1.68,1.02,2.72-.8,2.32-2.04,4.46-3.64,6.31-.71.83-1.92,1.03-2.86.47l-.75-.43c-.24-.14-.54-.06-.68.18,0,0,0,0,0,0l-1.28,2.22c-.14.24-.06.54.18.68,0,0,0,0,0,0l.32.19c1.52.88,3.12.66,4.9-.67,3.17-2.66,5.3-6.35,6.02-10.42.26-2.21-.35-3.71-1.87-4.58h0Z"/>
</svg>
