<?xml version="1.0" encoding="UTF-8"?>
<svg id="four-hands" data-name="Layer 1" xmlns="http://www.w3.org/2000/svg" viewBox="0 0 60.11 60.1">
  <defs>
    <style>
      .cls-1 {
        fill: #91191c;
        stroke: #91191c;
        stroke-width: .1px;
      }
    </style>
  </defs>
  <g id="_020---Teamwork" data-name=" 020---Teamwork">
    <path id="Shape" class="cls-1" d="M56.91,4.07c-.71-.07-1.43.07-2.06.42-.56-1.83-2.5-2.85-4.33-2.29-.22.07-.44.16-.64.27-.57-1.82-2.51-2.84-4.33-2.27-.81.25-1.5.79-1.93,1.52-1.52-1.13-3.67-.81-4.8.72-.14.19-.26.4-.36.61h-9.85c-.18,0-.36-.05-.52-.15L24.05.49c-.46-.28-1-.43-1.54-.43H7.7c-1.83-.02-3.39,1.33-3.62,3.14-.07.71.07,1.43.42,2.06-1.83.56-2.85,2.5-2.29,4.32.07.22.16.44.27.65C.66,10.79-.36,12.74.21,14.56c.25.81.79,1.5,1.52,1.93-.51.7-.74,1.56-.65,2.42.14,1.2.89,2.23,1.98,2.75v9.84c0,.18-.05.36-.15.51l-2.44,4.06c-.27.46-.41.99-.41,1.52v14.81c-.02,1.83,1.33,3.39,3.14,3.62.71.07,1.43-.08,2.06-.42.56,1.83,2.5,2.85,4.33,2.29.22-.07.44-.16.65-.27.46,1.45,1.81,2.43,3.33,2.42,1.21,0,2.32-.63,2.94-1.67,1.53,1.13,3.68.81,4.81-.72.14-.19.26-.39.36-.61h9.84c.18,0,.36.05.52.15l4.04,2.42c.47.28,1,.43,1.54.43h14.81c1.83.02,3.39-1.33,3.62-3.14.07-.71-.08-1.43-.42-2.06,1.83-.56,2.85-2.5,2.29-4.32-.07-.22-.16-.44-.27-.65,1.82-.57,2.84-2.51,2.27-4.33-.25-.81-.79-1.5-1.52-1.93.51-.7.74-1.56.65-2.42-.14-1.19-.89-2.23-1.98-2.74v-9.85c0-.18.05-.36.15-.52l2.42-4.04c.28-.47.43-1,.43-1.54V7.7c.02-1.83-1.33-3.39-3.14-3.62ZM2.06,13.72c-.09-.82.5-1.56,1.33-1.65.05,0,.11,0,.16,0h6.5c.55,0,1-.45,1-1s-.45-1-1-1h-4.5c-.83,0-1.5-.66-1.51-1.49,0-.06,0-.11,0-.17.13-.8.83-1.38,1.64-1.34h6.36c.55,0,1-.45,1-1s-.45-1-1-1h-4.5c-.83,0-1.5-.66-1.51-1.49,0-.06,0-.11,0-.17.13-.8.83-1.38,1.64-1.34h14.81c.18,0,.36.05.52.15l4.04,2.42c.47.28,1,.43,1.54.43h9.45v8.89l-1.73-1.42c-1.3-.99-3.13-.89-4.31.24-.88.85-1.18,2.14-.78,3.29h-3.35c-.79,0-1.54.32-2.1.87l-9.41,9.33-.02.02-.42.41c-.49.48-1.27.47-1.75-.02-.43-.44-.48-1.14-.1-1.63l2.75-3.36c.35-.43.28-1.06-.15-1.41-.18-.14-.4-.22-.63-.22H4.7c-.81.03-1.51-.54-1.63-1.34-.09-.82.51-1.56,1.33-1.65.05,0,.11,0,.16,0h5.5c.55,0,1-.45,1-1s-.45-1-1-1H3.7c-.8.03-1.51-.54-1.64-1.34ZM42.06,32.71l-9.13,9.05c-.18.18-.43.29-.69.29h-4.84l-9.05-9.13c-.18-.18-.29-.43-.29-.69v-4.84l9.13-9.05c.18-.18.43-.29.69-.29h4.84l9.05,9.13c.18.18.29.43.29.69v4.84ZM18.71,57.05c-.42.05-.84-.09-1.16-.38-.32-.29-.5-.69-.5-1.12v-5.5c0-.55-.45-1-1-1s-1,.45-1,1v6.36c.03.81-.55,1.51-1.35,1.63-.42.05-.84-.09-1.15-.38-.32-.29-.5-.69-.5-1.12v-6.5c0-.55-.45-1-1-1s-1,.45-1,1v4.51c0,.83-.68,1.5-1.51,1.49-.05,0-.1,0-.15,0-.8-.13-1.37-.83-1.34-1.64v-6.36c0-.55-.45-1-1-1s-1,.45-1,1v4.51c0,.83-.68,1.5-1.51,1.49-.05,0-.1,0-.15,0-.8-.13-1.37-.83-1.34-1.64v-14.81c0-.18.05-.36.14-.51l2.43-4.05c.28-.47.43-1,.43-1.54v-9.45h8.89l-1.42,1.73c-1.13,1.37-.93,3.4.44,4.54.86.71,2.03.92,3.09.56v3.35c0,.79.32,1.54.87,2.1l9.33,9.4s.02.02.03.03l.41.41c.48.49.47,1.27-.02,1.75-.23.23-.55.36-.87.36-.27,0-.54-.09-.75-.26l-3.36-2.75c-.42-.35-1.05-.3-1.41.13-.15.18-.23.41-.23.65v11.36c.03.81-.55,1.51-1.35,1.64ZM58.05,46.39c.09.82-.5,1.56-1.33,1.65-.05,0-.11,0-.16,0h-6.5c-.55,0-1,.45-1,1s.45,1,1,1h4.5c.83,0,1.5.66,1.51,1.49,0,.06,0,.11,0,.17-.13.8-.83,1.38-1.64,1.34h-6.36c-.55,0-1,.45-1,1s.45,1,1,1h4.5c.83,0,1.5.66,1.51,1.49,0,.06,0,.11,0,.17-.13.8-.83,1.38-1.64,1.34h-14.81c-.18,0-.36-.05-.52-.15l-4.04-2.42c-.47-.28-1-.43-1.54-.43h-9.45v-8.89l1.73,1.42c1.3,1,3.13.9,4.31-.24.88-.85,1.19-2.13.79-3.29h3.35c.79,0,1.54-.32,2.1-.87l9.41-9.33.03-.03.41-.4c.49-.48,1.27-.47,1.75.02.43.44.48,1.14.1,1.63l-2.75,3.36c-.35.43-.28,1.06.14,1.41.18.14.4.22.63.22h11.36c.81-.03,1.51.54,1.63,1.34.09.82-.51,1.56-1.33,1.65-.05,0-.11,0-.16,0h-5.5c-.55,0-1,.45-1,1s.45,1,1,1h6.36c.8-.03,1.5.54,1.63,1.34ZM58.06,22.51c0,.18-.05.36-.15.52l-2.42,4.04c-.28.47-.43,1-.43,1.54v9.45h-8.89l1.42-1.73c1.03-1.29.93-3.14-.24-4.31-.87-.84-2.14-1.13-3.29-.76v-3.38c0-.79-.32-1.54-.87-2.1l-9.33-9.41-.02-.02-.41-.42c-.48-.47-.48-1.25-.01-1.73,0,0,.01-.01.02-.02.45-.43,1.14-.47,1.63-.1l3.36,2.75c.43.35,1.06.28,1.41-.15.14-.18.22-.4.22-.62V4.7c-.03-.81.54-1.51,1.34-1.63.82-.09,1.56.51,1.65,1.33,0,.05,0,.11,0,.16v5.5c0,.55.45,1,1,1s1-.45,1-1V3.7c-.03-.81.54-1.51,1.34-1.63.82-.09,1.56.51,1.65,1.33,0,.05,0,.11,0,.16v6.5c0,.55.45,1,1,1s1-.45,1-1v-4.5c0-.83.67-1.5,1.5-1.5.05,0,.11,0,.16,0,.8.13,1.37.83,1.34,1.64v6.36c0,.55.45,1,1,1s1-.45,1-1v-4.5c0-.83.67-1.5,1.5-1.5.05,0,.11,0,.16,0,.8.13,1.37.83,1.34,1.64v14.81Z"/>
  </g>
</svg>
