<?xml version="1.0" encoding="UTF-8"?>
<svg id="hand-shield" data-name="Layer 1" xmlns="http://www.w3.org/2000/svg" viewBox="0 0 66.64 62.38">
  <defs>
    <style>
      .cls-1 {
        fill: #91191c;
        stroke: #91191c;
        stroke-width: .2px;
      }
    </style>
  </defs>
  <g id="shield">
    <path id="Path_97" data-name="Path 97" class="cls-1" d="M32.2,23.23c.4.37,1.02.35,1.39-.05.03-.04.06-.08.09-.12l6.48-9.78c.3-.45.17-1.05-.27-1.35-.45-.3-1.05-.17-1.35.27h0l-5.84,8.81-3.24-3.08c-.39-.37-1.01-.35-1.38.04-.37.39-.35,1.01.04,1.38h0l4.09,3.88Z"/>
    <path id="Path_98" data-name="Path 98" class="cls-1" d="M32.86,38.07c.19.09.39.13.6.13h0c.21,0,.41-.05.6-.14,14.8-7.04,17.31-22.22,17.72-26.71.1-1.02-.49-1.99-1.43-2.37-2.94-1.21-4.96-3.97-5.23-7.14-.09-.99-.92-1.74-1.91-1.74h-.01l-19.94.12c-1,0-1.83.78-1.9,1.78-.24,3.17-2.22,5.94-5.15,7.19-.94.4-1.51,1.37-1.4,2.39.47,4.48,3.15,19.64,18.04,26.5h0ZM16.99,10.97c3.59-1.53,6.03-4.92,6.32-8.81l19.88-.12c.34,3.88,2.82,7.24,6.42,8.73.16.06.26.23.24.4-.39,4.2-2.73,18.38-16.4,25.03-13.75-6.48-16.25-20.63-16.69-24.83-.02-.17.07-.33.23-.4h0Z"/>
    <path id="Path_99" data-name="Path 99" class="cls-1" d="M19.42,16.37c.16.5.68.8,1.2.68.52-.14.82-.68.68-1.19-.25-.91-.46-1.84-.62-2.76,2.64-1.72,4.61-4.3,5.57-7.3l14.06-.08c1,2.99,2.99,5.54,5.65,7.23-.15.92-.35,1.85-.59,2.77-.13.52.18,1.05.7,1.19s1.05-.18,1.19-.7h0c.28-1.08.51-2.17.67-3.25.1-.6-.18-1.2-.7-1.51-2.48-1.5-4.32-3.85-5.16-6.62-.2-.63-.77-1.05-1.43-1.06h0l-14.71.09c-.66,0-1.24.44-1.43,1.07-.81,2.78-2.63,5.16-5.09,6.68-.52.32-.79.92-.68,1.52.18,1.08.42,2.17.71,3.24h0Z"/>
    <path id="Path_100" data-name="Path 100" class="cls-1" d="M45.29,19.25c-.5-.21-1.07.03-1.27.53,0,0,0,0,0,0-2.03,5.19-5.76,9.54-10.59,12.32-4.87-2.73-8.65-7.04-10.74-12.22-.21-.49-.78-.72-1.28-.51-.49.21-.72.78-.51,1.28,2.28,5.66,6.46,10.36,11.81,13.29.45.25,1,.24,1.44,0,5.32-2.99,9.43-7.72,11.65-13.4.2-.5-.03-1.06-.53-1.27,0,0,0,0,0,0h0Z"/>
    <path id="Path_101" data-name="Path 101" class="cls-1" d="M6.34,49.9c-1.9,0-3.44,1.54-3.44,3.44,0,1.9,1.54,3.44,3.44,3.44,1.9,0,3.44-1.54,3.44-3.44,0-1.9-1.54-3.44-3.44-3.44ZM6.34,54.84c-.83,0-1.5-.67-1.5-1.5s.67-1.5,1.5-1.5,1.5.67,1.5,1.5h0c0,.83-.67,1.5-1.5,1.5Z"/>
    <path id="Path_102" data-name="Path 102" class="cls-1" d="M65.84,40.37c-1.25-1.84-3.75-2.32-5.6-1.08l-12.72,8.52-2.72-.15-.07-.7c-.26-2.72-2.36-4.9-5.06-5.28h-.05s-13.71-1.21-13.71-1.21c-.46-.07-1.95-.5-6.03-2.84-2.12-1.22-4.5-1.9-6.94-2v-2.55c0-1.28-1.04-2.32-2.32-2.32H2.42c-1.28,0-2.32,1.04-2.32,2.32,0,0,0,0,0,0v25.08c0,1.28,1.04,2.31,2.32,2.32h8.21c1.28,0,2.32-1.04,2.32-2.32v-.69l11.98,4.54c.9.26,1.86.33,2.79.2l19.91-2.87h.01c1.7-.27,3.3-.99,4.64-2.08l.03-.03,12.86-11.57c1.52-1.35,1.8-3.62.66-5.3h0ZM63.89,44.22l-12.85,11.55c-1.07.86-2.34,1.43-3.69,1.65l-19.9,2.87h-.03c-.62.09-1.24.05-1.84-.12l-12.63-4.78v-11.11c0-.54-.44-.97-.97-.97s-.97.44-.97.97v13.89c0,.2-.17.37-.37.37H2.42c-.2,0-.37-.17-.37-.37h0v-25.08c0-.2.17-.37.37-.37h8.21c.2,0,.37.17.37.37h0v6.79c0,.54.44.97.97.97s.97-.44.97-.97v-2.3c2.1.09,4.15.69,5.97,1.74,4.92,2.82,6.3,3.02,6.75,3.08h.05s13.71,1.21,13.71,1.21c1.8.26,3.2,1.72,3.37,3.54l.05.52-18.36,1.13h-.04c-.59-.05-1.14-.34-1.51-.79-.34-.41-.96-.47-1.37-.12-.41.34-.47.96-.12,1.37h0c.71.85,1.73,1.38,2.84,1.48.6.06,19.64-1.18,19.64-1.18l3.82.21c.21.01.42-.04.6-.16l13-8.7c.97-.64,2.27-.37,2.91.6.57.87.42,2.02-.35,2.71h0Z"/>
  </g>
</svg>
