<?xml version="1.0" encoding="UTF-8"?>
<svg id="person-stars" data-name="Layer 1" xmlns="http://www.w3.org/2000/svg" viewBox="0 0 60.72 64.78">
  <defs>
    <style>
      .cls-1 {
        fill: #91191c;
        fill-rule: evenodd;
      }
    </style>
  </defs>
  <path id="Path_93" data-name="Path 93" class="cls-1" d="M56.78,31.44c-.61.1-1.02.68-.92,1.29,0,0,0,0,0,0,1.54,9.05-1.83,18.24-8.86,24.15-.97-6.36-5.5-11.61-11.66-13.48,4.14-2.75,5.27-8.33,2.52-12.48-2.75-4.14-8.33-5.27-12.48-2.52s-5.27,8.33-2.52,12.48c.66,1,1.52,1.86,2.52,2.52-6.16,1.88-10.69,7.12-11.66,13.48-7.03-5.91-10.4-15.1-8.86-24.16.13-.61-.25-1.21-.86-1.34s-1.21.25-1.34.86c0,.04-.01.07-.02.11C.05,47.65,10.33,62.15,25.62,64.75c.03,0,.06,0,.09.01.06.01.12.02.18.01.62,0,1.13-.5,1.13-1.12,0-.55-.4-1.03-.95-1.12-3.67-.61-7.17-2-10.26-4.09.58-8.04,7.57-14.08,15.6-13.5,7.23.52,12.98,6.27,13.5,13.5-3.08,2.09-6.59,3.49-10.26,4.09-.61.1-1.03.67-.93,1.29.09.55.56.95,1.12.95.06,0,.12,0,.18-.01,15.29-2.55,25.62-17.02,23.07-32.31,0-.03,0-.06-.01-.09-.1-.61-.67-1.02-1.28-.92,0,0-.01,0-.02,0h0ZM23.61,35.93c0-3.73,3.02-6.75,6.75-6.75s6.75,3.02,6.75,6.75-3.02,6.75-6.75,6.75h0c-3.72,0-6.74-3.02-6.75-6.75Z"/>
  <path id="Path_94" data-name="Path 94" class="cls-1" d="M42.68,8.89c-.13-.41-.48-.7-.91-.77l-7.18-1.04-3.21-6.51c-.33-.56-1.05-.74-1.61-.41-.17.1-.31.24-.41.41l-3.21,6.51-7.19,1.04c-.62.09-1.04.66-.95,1.28.04.24.15.47.33.64l5.2,5.07-1.23,7.16c-.1.61.31,1.19.92,1.3.24.04.49,0,.71-.11l6.43-3.38,6.43,3.38c.16.09.34.13.52.13.62,0,1.12-.5,1.12-1.13,0-.06,0-.13-.02-.19l-1.23-7.16,5.2-5.07c.31-.3.42-.75.28-1.15h0ZM35.2,13.91c-.27.26-.39.63-.32,1l.94,5.49-4.93-2.59c-.33-.17-.72-.17-1.05,0l-4.93,2.59.94-5.49c.06-.37-.06-.74-.32-1l-3.99-3.89,5.52-.8c.37-.05.68-.28.85-.61l2.47-5,2.47,5c.16.33.48.56.85.61l5.51.8-3.99,3.89h0Z"/>
  <path id="Path_95" data-name="Path 95" class="cls-1" d="M3.45,26.98c-.1.61.31,1.19.92,1.3.24.04.49,0,.71-.11l5.04-2.65,5.04,2.65c.16.09.34.13.52.13.62,0,1.12-.5,1.12-1.13,0-.06,0-.13-.02-.19l-.96-5.61,4.07-3.97c.45-.43.45-1.15.02-1.59-.17-.18-.4-.29-.64-.33l-5.63-.82-2.52-5.1c-.33-.56-1.05-.74-1.61-.41-.17.1-.31.24-.41.41l-2.52,5.1-5.63.82c-.62.09-1.04.66-.95,1.28.04.24.15.47.33.64l4.07,3.97-.96,5.61ZM3.54,17.38l3.96-.57c.37-.05.68-.28.85-.61l1.77-3.59,1.77,3.59c.16.33.48.56.85.61l3.96.57-2.87,2.79c-.27.26-.39.63-.32,1l.68,3.94-3.54-1.86c-.33-.17-.72-.17-1.05,0l-3.54,1.86.68-3.94c.06-.37-.06-.74-.32-1l-2.87-2.79h0Z"/>
  <path id="Path_96" data-name="Path 96" class="cls-1" d="M59.76,15.49l-5.63-.82-2.52-5.1c-.33-.56-1.05-.74-1.61-.41-.17.1-.31.24-.41.41l-2.52,5.1-5.63.82c-.62.09-1.04.66-.95,1.28.04.24.15.47.33.64l4.07,3.97-.96,5.61c-.1.61.31,1.19.92,1.3.24.04.49,0,.71-.11l5.04-2.65,5.04,2.65c.16.09.34.13.52.13.62,0,1.12-.5,1.12-1.13,0-.06,0-.13-.02-.19l-.96-5.61,4.07-3.97c.45-.43.45-1.15.02-1.59-.17-.18-.4-.29-.64-.33h0ZM54.31,20.18c-.27.26-.39.63-.32,1l.68,3.94-3.54-1.86c-.33-.17-.72-.17-1.05,0l-3.54,1.86.68-3.94c.06-.37-.06-.74-.32-1l-2.87-2.79,3.96-.57c.37-.05.68-.28.85-.61l1.77-3.59,1.77,3.59c.16.33.48.56.85.61l3.96.57-2.87,2.79Z"/>
</svg>
