<?xml version="1.0" encoding="UTF-8"?>
<svg id="pharmacy" data-name="Layer 1" xmlns="http://www.w3.org/2000/svg" viewBox="0 0 52.05 56.36">
  <defs>
    <style>
      .cls-1 {
        fill: #91191c;
        stroke: #91191c;
        stroke-width: .2px;
      }
    </style>
  </defs>
  <g id="_005-drugstore" data-name=" 005-drugstore">
    <g id="Group_17" data-name="Group 17">
      <path id="Path_27" data-name="Path 27" class="cls-1" d="M33.32,45.54h-.02c-.45,0-.82-.37-.82-.82,0-.45.37-.82.82-.82h.02c.45,0,.82.37.82.82,0,.45-.37.82-.82.82h0Z"/>
    </g>
    <g id="Group_18" data-name="Group 18">
      <path id="Path_28" data-name="Path 28" class="cls-1" d="M47.36,45.54h-1.67c-.45,0-.82-.37-.82-.82,0-.45.37-.82.82-.82h1.67c.45,0,.82.37.82.82,0,.45-.37.82-.82.82h0Z"/>
    </g>
    <g id="Group_19" data-name="Group 19">
      <path id="Path_29" data-name="Path 29" class="cls-1" d="M47.36,49.16h-1.67c-.45,0-.82-.37-.82-.82,0-.45.37-.82.82-.82h1.67c.45,0,.82.37.82.82,0,.45-.37.82-.82.82h0Z"/>
    </g>
    <g id="Group_20" data-name="Group 20">
      <path id="Path_30" data-name="Path 30" class="cls-1" d="M47.36,52.78h-1.67c-.45,0-.82-.37-.82-.82,0-.45.37-.82.82-.82h1.67c.45,0,.82.37.82.82,0,.45-.37.82-.82.82h0Z"/>
    </g>
    <g id="Group_21" data-name="Group 21">
      <path id="Path_31" data-name="Path 31" class="cls-1" d="M20.86,14.17h2.33v2.32c0,.62.5,1.12,1.12,1.12h3.41c.62,0,1.12-.5,1.12-1.12v-2.32h2.33c.62,0,1.12-.5,1.12-1.12v-3.4c0-.62-.5-1.12-1.12-1.12h-2.33v-2.33c0-.62-.5-1.12-1.12-1.12h-3.41c-.62,0-1.12.5-1.12,1.12v2.33h-2.33c-.62,0-1.12.5-1.12,1.12v3.41c0,.61.51,1.11,1.12,1.11ZM21.38,10.18h2.62c.45,0,.82-.37.82-.82v-2.61h2.36v2.61c0,.45.37.82.82.82h2.62v2.35h-2.62c-.45,0-.82.37-.82.82v2.62h-2.36v-2.62c0-.45-.37-.82-.82-.82h-2.62v-2.35Z"/>
      <path id="Path_32" data-name="Path 32" class="cls-1" d="M18.13,37.99c-1.2-1.57-3.44-1.87-5.01-.67-.75.58-1.25,1.43-1.37,2.37-.13.94.12,1.89.7,2.64l3.59,4.67c.68.89,1.73,1.4,2.84,1.4,1.98,0,3.57-1.62,3.56-3.59,0-.78-.26-1.54-.73-2.16l-3.57-4.67ZM15.05,43.02l-1.29-1.69c-.31-.41-.44-.92-.37-1.43.06-.51.33-.97.73-1.27.34-.25.75-.39,1.17-.39.6,0,1.17.28,1.54.76,0,0,1.25,1.62,1.28,1.68l-3.06,2.35ZM20.79,45.09c-.06.51-.33.97-.74,1.27-.85.65-2.06.48-2.71-.36l-1.28-1.68,3.07-2.34c.44.57.88,1.14,1.29,1.69.3.41.43.91.36,1.42h0Z"/>
      <path id="Path_33" data-name="Path 33" class="cls-1" d="M50.85,40.2h-3.01v-3.03c0-.45-.37-.82-.82-.82s-.82.37-.82.82v3.03h-3.17v-3.6c0-1.67-1.36-3.02-3.03-3.02h-7.8c-1.67,0-3.02,1.35-3.03,3.02v18.01H12.27v-3.05h10.47c1.67,0,3.02-1.36,3.03-3.03v-12.07c0-1.67-1.36-3.02-3.03-3.03h-11.3c-1.67,0-3.02,1.36-3.03,3.03v8.16c-.57-.19-1.17-.29-1.77-.29-.28,0-.55.02-.82.07v-4.65c0-.45-.37-.82-.82-.82-.45,0-.82.37-.82.82h0v5.16c-1.92.94-3.14,2.89-3.15,5.03v5.49c0,.45.37.82.82.82h48.99c.45,0,.82-.37.82-.82v-14.42c0-.45-.35-.82-.8-.82,0,0,0,0-.01,0ZM10.62,54.61H2.67v-4.66c0-2.19,1.78-3.97,3.97-3.97s3.97,1.78,3.97,3.97v4.66h.01ZM10.05,45.49v-9.03c0-.76.62-1.38,1.38-1.38h11.29c.76,0,1.38.61,1.38,1.37,0,0,0,0,0,.01v12.08c0,.76-.62,1.38-1.38,1.38h-10.47c0-1.74-.82-3.38-2.2-4.43h0ZM41.38,54.61h-10.56v-18.01c0-.76.62-1.37,1.38-1.37,0,0,0,0,0,0h7.8c.76,0,1.38.61,1.38,1.37v18.01ZM50.03,54.61h-6.99v-12.77h6.98v12.77Z"/>
      <path id="Path_34" data-name="Path 34" class="cls-1" d="M47.02,15.72h-1.21v-1.45c0-2.07-1.68-3.74-3.74-3.74h-4.79C36.8,4.31,31.36-.35,25.14.13c-5.55.43-9.97,4.84-10.4,10.4h-4.79c-2.07,0-3.74,1.68-3.74,3.74v1.45h-1.21C2.55,15.72.1,17.12.1,20.25v4.79c0,2.54,1.66,4.79,4.08,5.56v5.47c0,.45.37.82.82.82.45,0,.82-.37.82-.82v-5.21h.11c2.06,0,3.96-1.08,5.01-2.85,1.66,2.77,5.25,3.68,8.02,2.03.83-.5,1.53-1.19,2.03-2.03,1.66,2.77,5.25,3.68,8.02,2.03.83-.5,1.53-1.19,2.03-2.03,1.65,2.77,5.24,3.68,8.01,2.03.83-.5,1.53-1.19,2.03-2.03,1.05,1.77,2.96,2.86,5.02,2.85h.11v2.62c0,.45.37.82.82.82s.82-.37.82-.82v-2.88c2.43-.77,4.08-3.02,4.08-5.56v-4.79c-.01-3.13-2.48-4.53-4.93-4.53h0ZM37.28,12.18h4.79c1.16,0,2.1.94,2.1,2.1v1.45h-7.75c.47-1.13.76-2.33.85-3.55h0ZM26.01,1.73c5.31.01,9.61,4.33,9.6,9.64-.01,5.31-4.33,9.61-9.64,9.6-5.3-.01-9.6-4.32-9.6-9.62,0-5.32,4.32-9.62,9.64-9.62ZM7.86,14.27c0-1.16.94-2.1,2.1-2.1h4.79c.09,1.22.37,2.42.85,3.54h-7.74v-1.44ZM50.29,25.04c0,2.32-1.88,4.2-4.2,4.2s-4.2-1.88-4.2-4.2c0-.45-.37-.82-.82-.82-.45,0-.82.37-.82.82-.1,2.32-2.06,4.11-4.38,4.01-2.18-.1-3.92-1.84-4.01-4.01,0-.45-.37-.82-.82-.82-.45,0-.82.37-.82.82,0,2.32-1.88,4.2-4.2,4.2-2.32,0-4.2-1.88-4.2-4.2,0-.45-.37-.82-.82-.82-.45,0-.82.37-.82.82,0,2.32-1.88,4.2-4.2,4.2-2.32,0-4.2-1.88-4.2-4.2,0-.45-.37-.82-.82-.82-.45,0-.82.37-.82.82-.1,2.32-2.06,4.11-4.38,4.01-2.18-.1-3.92-1.84-4.01-4.01v-4.79c0-2.68,2.5-2.9,3.26-2.9h11.5c3.32,5.27,10.29,6.85,15.56,3.53,1.42-.9,2.63-2.1,3.53-3.53h11.45c.77,0,3.26.21,3.26,2.9v4.79Z"/>
    </g>
  </g>
</svg>
