<?xml version="1.0" encoding="UTF-8"?>
<svg id="phone" data-name="Layer 1" xmlns="http://www.w3.org/2000/svg" viewBox="0 0 56.36 56.37">
  <defs>
    <style>
      .cls-1 {
        fill: #91191c;
        stroke: #91191c;
        stroke-width: .2px;
      }
    </style>
  </defs>
  <g id="_002-booking" data-name=" 002-booking">
    <path id="Path_22" data-name="Path 22" class="cls-1" d="M13.88,53.03h4.87c2.82,0,2.83-4.4,0-4.4h-4.87c-2.82,0-2.83,4.4,0,4.4ZM13.88,50.27h4.87c.31.01.54.27.53.58-.01.29-.24.52-.53.53h-4.87c-.31,0-.55-.25-.55-.55s.25-.55.55-.55h0Z"/>
    <path id="Path_23" data-name="Path 23" class="cls-1" d="M19.92,28.38l-5.36,5.36-1.85-1.86c-.32-.32-.84-.32-1.16,0s-.32.84,0,1.16h0l2.44,2.44c.32.32.84.32,1.16,0,0,0,0,0,0,0l5.94-5.94c.32-.32.32-.84,0-1.17-.32-.32-.84-.32-1.17,0h0Z"/>
    <path id="Path_24" data-name="Path 24" class="cls-1" d="M55.66,36.5c-.33-.64-.58-1.32-.74-2.03-.8-3.36-2.02-6.61-3.63-9.67l-2.67-5.11c-1-1.8-3.27-2.45-5.07-1.45-.86.48-1.49,1.27-1.77,2.21-1.94-.68-4.07.35-4.74,2.3-.03.07-.05.15-.07.23-1.68-.59-3.54.1-4.45,1.63V3.31c0-1.77-1.44-3.21-3.22-3.21H10.15c-.45,0-.82.37-.82.82s.37.82.82.82h19.17c.87,0,1.57.7,1.57,1.57v2.4H1.75v-2.4c0-.87.7-1.57,1.57-1.57h2.22c.45,0,.82-.37.82-.82s-.37-.82-.82-.82h-2.22C1.54.1.1,1.54.1,3.31v49.74c0,1.77,1.44,3.21,3.21,3.22h26c1.77,0,3.21-1.44,3.22-3.22v-10.15l2.94,1.45c.73.36,1.32.95,1.68,1.69,1.35,2.66,4.6,3.73,7.26,2.39,0,0,.01,0,.02-.01l4.9-2.57c.4-.21.56-.71.35-1.11s-.71-.56-1.11-.35h0l-4.9,2.57c-1.84.94-4.09.21-5.03-1.62,0,0,0-.02-.01-.02-.52-1.06-1.38-1.91-2.44-2.43l-12.47-6.17c-2.34-1.14-.65-4.81,1.73-3.7l4.53,2.38c.41.21.91.04,1.11-.37.12-.24.12-.51,0-.75l-7.87-15.02c-1.29-2.43,2.17-4.67,3.49-2.15l5.56,10.62,1.45,2.77c.23.39.74.52,1.13.29.37-.21.51-.67.33-1.06l-1.42-2.7c-.3-1.09.34-2.22,1.43-2.53.65-.18,1.35-.03,1.87.41l1.57,3c.23.39.74.52,1.13.29.37-.21.51-.67.33-1.06l-1.6-3.05c-.07-1.14.8-2.11,1.94-2.18.51-.03,1.02.13,1.42.46l1.58,3.03c.23.39.74.52,1.13.29.37-.21.51-.67.33-1.06l-1.58-3.02c-.08-1.13.77-2.12,1.9-2.2.8-.06,1.55.35,1.94,1.05l2.68,5.11c1.54,2.94,2.71,6.06,3.48,9.28.19.84.48,1.65.88,2.41.95,1.81.25,4.05-1.56,5-.4.21-.56.71-.35,1.11s.71.56,1.11.35c2.61-1.37,3.62-4.6,2.26-7.22ZM30.88,53.05c0,.87-.7,1.57-1.57,1.57H3.31c-.87,0-1.57-.7-1.57-1.57v-6.03h29.14v6.03ZM21.26,33.27c-.56,1.18-.45,2.57.28,3.66-2.76,2.88-7.34,2.98-10.22.22-2.88-2.76-2.98-7.34-.22-10.22s7.34-2.98,10.22-.22c1.27,1.22,2.06,2.86,2.2,4.62-.99.31-1.81,1.01-2.26,1.95h0ZM27.23,15.19c-.36-.29-.78-.52-1.23-.66-1.98-.58-4.05.56-4.63,2.54-.17.57-.19,1.17-.08,1.76H5.67c-.15,0-.27-.12-.27-.27h0v-5.88c0-.15.12-.27.27-.27h21.28c.15,0,.27.12.27.27h0v2.52ZM30.88,21.52l-2.01-3.83v-5.02c0-1.06-.86-1.92-1.92-1.92H5.67c-1.06,0-1.92.86-1.92,1.92v5.88c0,1.06.86,1.92,1.92,1.92h16.33l6.41,12.23-2.21-1.16h-.03c-.32-.17-.66-.27-1.02-.33-.4-4.88-4.68-8.52-9.57-8.11-4.88.4-8.52,4.68-8.11,9.57s4.68,8.52,9.57,8.11c2.17-.18,4.2-1.15,5.7-2.73,2.61,1.5,5.44,2.7,8.14,4.04v3.29H1.75V7.36h29.14v14.16Z"/>
  </g>
</svg>
