<?xml version="1.0" encoding="UTF-8"?>
<svg id="statistics" data-name="Layer 1" xmlns="http://www.w3.org/2000/svg" viewBox="0 0 54.27 55.47">
  <defs>
    <style>
      .cls-1 {
        fill: #91191c;
        stroke: #91191c;
        stroke-width: .4px;
      }
    </style>
  </defs>
  <g id="_006-budget" data-name=" 006-budget">
    <path id="Path_35" data-name="Path 35" class="cls-1" d="M50.44,27.41h-17c-.36,0-.66.29-.66.66v3.84c0,.36.29.66.66.66h17c.36,0,.66-.29.66-.66v-3.84c0-.36-.29-.66-.66-.66h0ZM49.68,31.25h-15.58v-2.52h15.58v2.52Z"/>
    <path id="Path_36" data-name="Path 36" class="cls-1" d="M35.7,52.57c1.45,0,2.63-1.18,2.63-2.63s-1.18-2.63-2.63-2.63-2.63,1.18-2.63,2.63h0c0,1.46,1.18,2.63,2.63,2.63ZM35.7,48.62c.73,0,1.32.59,1.32,1.32s-.59,1.32-1.32,1.32-1.32-.59-1.32-1.32h0c0-.73.59-1.32,1.32-1.32Z"/>
    <path id="Path_37" data-name="Path 37" class="cls-1" d="M41.94,52.57c1.45,0,2.63-1.18,2.63-2.63s-1.18-2.63-2.63-2.63-2.63,1.18-2.63,2.63h0c0,1.46,1.18,2.63,2.63,2.63ZM41.94,48.62c.73,0,1.32.59,1.32,1.32s-.59,1.32-1.32,1.32-1.32-.59-1.32-1.32h0c0-.73.59-1.32,1.32-1.32Z"/>
    <path id="Path_38" data-name="Path 38" class="cls-1" d="M48.19,52.57c1.45,0,2.63-1.18,2.63-2.63s-1.18-2.63-2.63-2.63-2.63,1.18-2.63,2.63h0c0,1.46,1.18,2.63,2.63,2.63h0ZM48.19,48.62c.73,0,1.32.59,1.32,1.32s-.59,1.32-1.32,1.32-1.32-.59-1.32-1.32h0c0-.73.59-1.32,1.32-1.32Z"/>
    <path id="Path_39" data-name="Path 39" class="cls-1" d="M35.7,46.76c1.45,0,2.63-1.18,2.63-2.63s-1.18-2.63-2.63-2.63-2.63,1.18-2.63,2.63,1.18,2.63,2.63,2.63h0ZM35.7,42.81c.73,0,1.32.59,1.32,1.32s-.59,1.32-1.32,1.32-1.32-.59-1.32-1.32h0c0-.73.59-1.32,1.32-1.32Z"/>
    <path id="Path_40" data-name="Path 40" class="cls-1" d="M41.94,46.76c1.45,0,2.63-1.18,2.63-2.63s-1.18-2.63-2.63-2.63-2.63,1.18-2.63,2.63,1.18,2.63,2.63,2.63h0ZM41.94,42.81c.73,0,1.32.59,1.32,1.32s-.59,1.32-1.32,1.32-1.32-.59-1.32-1.32h0c0-.73.59-1.32,1.32-1.32Z"/>
    <path id="Path_41" data-name="Path 41" class="cls-1" d="M48.19,46.76c1.45,0,2.63-1.18,2.63-2.63s-1.18-2.63-2.63-2.63-2.63,1.18-2.63,2.63c0,1.45,1.18,2.63,2.63,2.63h0ZM48.19,42.81c.73,0,1.32.59,1.32,1.32s-.59,1.32-1.32,1.32-1.32-.59-1.32-1.32h0c0-.73.59-1.32,1.32-1.32h0Z"/>
    <path id="Path_42" data-name="Path 42" class="cls-1" d="M35.7,40.95c1.45,0,2.63-1.18,2.63-2.63s-1.18-2.63-2.63-2.63-2.63,1.18-2.63,2.63c0,1.45,1.18,2.63,2.63,2.63h0ZM35.7,37c.73,0,1.32.59,1.32,1.32s-.59,1.32-1.32,1.32-1.32-.59-1.32-1.32h0c0-.73.59-1.32,1.32-1.32h0Z"/>
    <path id="Path_43" data-name="Path 43" class="cls-1" d="M41.94,40.95c1.45,0,2.63-1.18,2.63-2.63s-1.18-2.63-2.63-2.63-2.63,1.18-2.63,2.63c0,1.45,1.18,2.63,2.63,2.63h0ZM41.94,37c.73,0,1.32.59,1.32,1.32s-.59,1.32-1.32,1.32-1.32-.59-1.32-1.32h0c0-.73.59-1.32,1.32-1.32h0Z"/>
    <path id="Path_44" data-name="Path 44" class="cls-1" d="M48.19,40.95c1.45,0,2.63-1.18,2.63-2.63s-1.18-2.63-2.63-2.63-2.63,1.18-2.63,2.63c0,1.45,1.18,2.63,2.63,2.63h0ZM48.19,37c.73,0,1.32.59,1.32,1.32s-.59,1.32-1.32,1.32-1.32-.59-1.32-1.32h0c0-.73.59-1.32,1.32-1.32h0Z"/>
    <path id="Path_45" data-name="Path 45" class="cls-1" d="M23.46,33.55h-6.86c-.36,0-.66.29-.66.66s.29.66.66.66h6.86c.36,0,.66-.29.66-.66s-.29-.66-.66-.66Z"/>
    <path id="Path_46" data-name="Path 46" class="cls-1" d="M13.47,34.87h.67c.36,0,.66-.29.66-.66s-.29-.66-.66-.66h-.67c-.36,0-.66.29-.66.66s.29.66.66.66Z"/>
    <path id="Path_47" data-name="Path 47" class="cls-1" d="M22.49,39.14h-3.58c-.36,0-.66.29-.66.66s.29.66.66.66h3.58c.36,0,.66-.29.66-.66s-.29-.66-.66-.66Z"/>
    <path id="Path_48" data-name="Path 48" class="cls-1" d="M16.33,39.14h-2.86c-.36,0-.66.29-.66.66s.29.66.66.66h2.86c.36,0,.66-.29.66-.66s-.29-.66-.66-.66Z"/>
    <path id="Path_49" data-name="Path 49" class="cls-1" d="M10.84,4.79c-.36,0-.66.29-.66.66v.26c0,.36.29.66.66.66s.66-.29.66-.66v-.26c0-.36-.29-.66-.66-.66h0Z"/>
    <path id="Path_50" data-name="Path 50" class="cls-1" d="M10.84,7.62c-.36,0-.66.29-.66.66v8.72c0,.36.29.66.66.66s.66-.29.66-.66v-8.72c0-.36-.29-.66-.66-.66h0Z"/>
    <path id="Path_51" data-name="Path 51" class="cls-1" d="M24.4,6.77c-5.36,0-9.71,4.35-9.71,9.71s4.35,9.71,9.71,9.71,9.71-4.35,9.71-9.71h0c0-5.36-4.35-9.71-9.71-9.71ZM32.78,16h-6.97l4.97-4.97c1.19,1.39,1.9,3.14,2,4.97h0ZM24.4,8.08c2,0,3.93.71,5.45,2.02l-5.45,5.45-4.29-6.28c1.29-.77,2.78-1.18,4.28-1.18ZM24.4,24.87c-4.63,0-8.39-3.75-8.4-8.39,0-2.5,1.11-4.87,3.04-6.47l4.78,7.01c.12.18.33.29.54.29h8.39c-.43,4.29-4.04,7.56-8.36,7.56h0Z"/>
    <path id="Path_52" data-name="Path 52" class="cls-1" d="M50.73,24.66h-8.84v-14.18c0-.48-.18-.94-.52-1.29L33.14.76c-.35-.35-.82-.55-1.31-.56H8.8c-1,0-1.81.82-1.8,1.82,0,0,0,.01,0,.02v1.78h-1.75c-.49,0-.96.18-1.32.52-.35.33-.55.8-.55,1.28v1.06h-1.33c-.49,0-.96.18-1.31.52-.35.34-.54.8-.55,1.28v43.73c0,1.02.83,1.86,1.85,1.87h28.31c.63.77,1.57,1.21,2.57,1.21h17.8c1.84,0,3.33-1.49,3.33-3.33v-23.94c0-1.84-1.49-3.33-3.33-3.33h0ZM32.78,2.27l6.92,7.14h-3.59c-.89,0-1.74-.37-2.36-1-.63-.63-.98-1.49-.97-2.38v-3.76ZM4.7,5.61c0-.13.07-.26.17-.35.11-.09.25-.14.39-.13h1.75v40.75c-.02.98.77,1.8,1.75,1.81.02,0,.03,0,.05,0h20.8v2.08H5.25c-.3-.02-.54-.26-.55-.56V5.61ZM2.06,52.75c-.14,0-.28-.06-.38-.17-.1-.1-.16-.24-.16-.38V8.47c0-.13.06-.26.16-.35.1-.09.24-.14.38-.13h1.33v41.23c.01,1.03.84,1.86,1.87,1.88h24.35v.83c0,.27.03.55.1.81H2.06ZM29.6,28v5.85c-.12-.19-.33-.3-.55-.3h-2.46c-.36,0-.66.3-.66.66,0,.36.29.66.66.66h2.46c.22,0,.43-.11.55-.3v4.58h-4.58c-.36,0-.66.29-.66.66s.29.66.66.66h4.58v5.92H8.8c-.13,0-.26-.04-.35-.14-.09-.1-.14-.23-.13-.36V2.04c-.02-.27.19-.51.46-.53,0,0,.02,0,.03,0h22.67v4.51c0,2.58,2.07,4.68,4.65,4.7h4.46v13.94h-7.64c-1.84,0-3.33,1.49-3.33,3.33h0ZM52.86,51.94c0,1.12-.91,2.02-2.03,2.02h-17.84c-1.12,0-2.04-.89-2.07-2.02v-17.07h21.94v17.07ZM52.86,33.55h-21.94v-5.55c.03-1.12.95-2.02,2.07-2.02h17.84c1.12,0,2.02.9,2.03,2.02v5.55Z"/>
  </g>
</svg>
