<?xml version="1.0" encoding="UTF-8"?>
<svg id="Layer_1" data-name="Layer 1" xmlns="http://www.w3.org/2000/svg" xmlns:xlink="http://www.w3.org/1999/xlink" viewBox="0 0 499.88 489.55">
  <defs>
    <style>
      .cls-1, .cls-2 {
        fill: none;
      }

      .cls-3 {
        clip-path: url(#clippath-1);
      }

      .cls-4 {
        fill: #ebe6e0;
      }

      .cls-2 {
        stroke: #ebe6e0;
        stroke-width: 2px;
      }

      .cls-5 {
        opacity: .4;
      }

      .cls-6 {
        clip-path: url(#clippath);
      }
    </style>
    <clipPath id="clippath">
      <rect class="cls-1" width="499.88" height="489.55"/>
    </clipPath>
    <clipPath id="clippath-1">
      <rect class="cls-1" x="34.79" y="7.38" width="448.02" height="470.37"/>
    </clipPath>
  </defs>
  <g id="Group_29" data-name="Group 29" class="cls-5">
    <g class="cls-6">
      <g id="Group_27" data-name="Group 27">
        <path id="Path_53" data-name="Path 53" class="cls-2" d="M498.79,284.39c6.62-44.94-17.42-92.54-58.78-116.38-27.81-16.03-76.7-27.23-77.91-57.71-3.03-76.8-88.98-132.1-166.21-101.91-34.4,13.18-66.52,45.62-70.29,80.99-1.34,12.6.62,25.37-.83,37.96-3.08,26.64-27.92,39-51.15,50.28-23.49,11.41-49.32,22.07-63.56,42.9-12.7,18.58-13.44,43.71-1.85,62.92,7.31,12.11,19.65,18.47,27.6,29.17,9.5,12.8,11.9,30.3,11.84,45.47-.39,36.3-14.93,78.83,11.65,109.98,17.88,20.35,50.28,25.5,77.49,18.58,55.64-14.39,87.94-65.33,135.64-92.23,28.4-16.01,58.91-21.17,91.56-20.84,64.47,2.07,123.43-25.41,134.8-89.19"/>
      </g>
    </g>
  </g>
  <g id="Group_28" data-name="Group 28">
    <g class="cls-3">
      <g id="Group_27-2" data-name="Group 27-2">
        <path id="Path_53-2" data-name="Path 53-2" class="cls-4" d="M481.84,280.63c5.94-43.18-15.61-88.91-52.68-111.83-24.92-15.41-68.75-26.16-69.82-55.45-2.71-73.79-79.75-126.92-148.97-97.92-30.83,12.66-59.62,43.83-63,77.82-1.2,12.11.56,24.37-.75,36.47-2.76,25.6-25.02,37.47-45.84,48.31-21.06,10.96-44.21,21.2-56.97,41.22-11.38,17.85-12.04,42-1.66,60.45,6.55,11.64,17.62,17.75,24.73,28.03,8.52,12.3,10.67,29.11,10.61,43.69-.35,34.88-13.38,75.74,10.44,105.68,16.03,19.55,45.06,24.5,69.45,17.86,49.87-13.83,78.82-62.78,121.57-88.62,25.45-15.38,52.8-20.34,82.06-20.02,57.78,1.99,110.62-24.41,120.82-85.7"/>
      </g>
    </g>
  </g>
</svg>