<?xml version="1.0" encoding="UTF-8"?>
<svg id="Layer_1" data-name="Layer 1" xmlns="http://www.w3.org/2000/svg" xmlns:xlink="http://www.w3.org/1999/xlink" viewBox="0 0 550.31 573.45">
  <defs>
    <style>
      .cls-1, .cls-2 {
        fill: none;
      }

      .cls-3 {
        clip-path: url(#clippath-1);
      }

      .cls-4 {
        fill: #ebe6e0;
      }

      .cls-5 {
        opacity: .4;
      }

      .cls-2 {
        stroke: #ebe6e0;
        stroke-miterlimit: 4;
        stroke-width: 2px;
      }

      .cls-6 {
        clip-path: url(#clippath);
      }
    </style>
    <clipPath id="clippath">
      <rect class="cls-1" x="61.21" y="54.76" width="427.89" height="463.94" transform="translate(-75.14 99.06) rotate(-18)"/>
    </clipPath>
    <clipPath id="clippath-1">
      <rect class="cls-1" x="92.38" y="78.4" width="396.52" height="429.92" transform="translate(-76.43 104.17) rotate(-18)"/>
    </clipPath>
  </defs>
  <g id="Group_3" data-name="Group 3" class="cls-5">
    <g class="cls-6">
      <g id="Group_1" data-name="Group 1">
        <path id="Path_9" data-name="Path 9" class="cls-2" d="M91.04,174.78c-4.21,31.01,3.69,62.65,31.01,83.08,13.33,9.97,30.67,16.46,38.2,31.31,18.08,35.66-21.08,66.17-39.5,93.19-37.98,55.71-6.55,138.52,58.72,155.61,178.68,46.78,442.69-308.01,230.72-360.7-41.05-10.21-100.32,5.29-127.99-32.1-17.01-22.97-13.63-55.33-43.73-67.93-64.34-26.95-138.43,31.26-147.43,97.55"/>
      </g>
    </g>
  </g>
  <g id="Group_2" data-name="Group 2">
    <g class="cls-3">
      <g id="Group_1-2" data-name="Group 1-2">
        <path id="Path_9-2" data-name="Path 9-2" class="cls-4" d="M120.02,189.63c-3.9,28.73,3.42,58.06,28.74,76.99,12.35,9.24,28.43,15.26,35.4,29.01,16.75,33.05-19.53,61.32-36.6,86.36-35.2,51.63-6.07,128.36,54.41,144.2,165.58,43.35,410.24-285.43,213.8-334.26-38.04-9.46-92.97,4.9-118.61-29.74-15.76-21.29-12.63-51.27-40.52-62.95-59.62-24.98-128.28,28.96-136.62,90.4"/>
      </g>
    </g>
  </g>
</svg>